<svg xmlns="http://www.w3.org/2000/svg" width="32.975" height="42.051" viewBox="0 0 32.975 42.051">
  <g id="_001-water-drop" data-name="001-water-drop" transform="translate(-55.111)">
    <g id="Group_42" data-name="Group 42" transform="translate(55.934 0.823)">
      <g id="Group_40" data-name="Group 40" transform="translate(0)">
        <path id="Path_57" data-name="Path 57" d="M93.9,33.563a14.491,14.491,0,1,1-25.964-6.247v0L79.6,10l7.474,11.1" transform="translate(-65.111 -10)" fill="#a3e0fb"/>
      </g>
      <g id="Group_41" data-name="Group 41" transform="translate(18.359 6.82)">
        <path id="Path_58" data-name="Path 58" d="M288.068,104.429a6.455,6.455,0,0,1,1.264-3.848h0l5.22-7.749,5.22,7.749h0a6.485,6.485,0,1,1-11.7,3.848Z" transform="translate(-288.068 -92.831)" fill="#4696e6"/>
      </g>
    </g>
    <g id="Group_43" data-name="Group 43" transform="translate(55.111 0)">
      <path id="Path_59" data-name="Path 59" d="M105.319,258.328a9.654,9.654,0,0,1-4.9-14.942.839.839,0,0,0,.075-.122.823.823,0,0,0-1.408-.844,11.3,11.3,0,0,0,.05,13.452,11.392,11.392,0,0,0,5.694,4.029.823.823,0,0,0,.489-1.573Z" transform="translate(-93.451 -222.139)"/>
      <path id="Path_60" data-name="Path 60" d="M88.086,19.242a7.25,7.25,0,0,0-1.413-4.32L81.461,7.184a.823.823,0,0,0-1.366,0l-2.2,3.26L71.107.363a.823.823,0,0,0-1.366,0L58.084,17.669a15.314,15.314,0,1,0,27.654,9.069,15.457,15.457,0,0,0-.133-2.014A7.293,7.293,0,0,0,88.086,19.242ZM80.778,9.118l4.529,6.724.029.041a5.661,5.661,0,1,1-9.116,0l.028-.04,2.332-3.462.013-.019Zm3.313,17.62a13.667,13.667,0,1,1-24.668-8.109c.01-.013.02-.028.029-.042L70.424,2.3l6.481,9.621-2.023,3a7.307,7.307,0,0,0,9.174,10.85q.034.482.035.966Z" transform="translate(-55.111 0)"/>
      <path id="Path_61" data-name="Path 61" d="M313.208,205.581a2.8,2.8,0,0,1,.241-1.144.823.823,0,1,0-1.5-.669,4.472,4.472,0,0,0,1.6,5.529.823.823,0,0,0,.916-1.369A2.819,2.819,0,0,1,313.208,205.581Z" transform="translate(-290.444 -186.54)"/>
      <path id="Path_62" data-name="Path 62" d="M218.716,447.718a.823.823,0,1,0-.921,1.122A.83.83,0,0,0,218.716,447.718Z" transform="translate(-203.793 -410.389)"/>
      <path id="Path_63" data-name="Path 63" d="M357.525,268.668a.823.823,0,1,0,0-1.369A.827.827,0,0,0,357.525,268.668Z" transform="translate(-332.292 -245.161)"/>
    </g>
  </g>
</svg>
