<svg xmlns="http://www.w3.org/2000/svg" width="39.795" height="33.344" viewBox="0 0 39.795 33.344">
  <g id="_002-weight-scale" data-name="002-weight-scale" transform="translate(0 -41.5)">
    <path id="Path_64" data-name="Path 64" d="M35.507,81.178H18.122A10.622,10.622,0,0,1,7.5,70.556V53.074A4.074,4.074,0,0,1,11.574,49H42.055a4.074,4.074,0,0,1,4.074,4.074V70.556A10.622,10.622,0,0,1,35.507,81.178Z" transform="translate(-6.917 -6.917)" fill="#e0e0e0"/>
    <path id="Path_65" data-name="Path 65" d="M346.719,49h-2.332a4.074,4.074,0,0,1,4.074,4.074V70.556A10.622,10.622,0,0,1,337.84,81.178h2.332a10.622,10.622,0,0,0,10.622-10.622V53.074A4.074,4.074,0,0,0,346.719,49Z" transform="translate(-311.581 -6.917)" fill="#bdbdbd"/>
    <path id="Path_66" data-name="Path 66" d="M45.79,106.515a8.29,8.29,0,0,1-8.29-8.29V80.743A1.743,1.743,0,0,1,39.243,79H69.723a1.743,1.743,0,0,1,1.743,1.743V98.225a8.29,8.29,0,0,1-8.29,8.29Z" transform="translate(-34.585 -34.585)" fill="#ffd54f"/>
    <path id="Path_67" data-name="Path 67" d="M346.719,79h-2.332a1.743,1.743,0,0,1,1.743,1.743V98.225a8.29,8.29,0,0,1-8.29,8.29h2.332a8.29,8.29,0,0,0,8.29-8.29V80.743A1.743,1.743,0,0,0,346.719,79Z" transform="translate(-311.581 -34.585)" fill="#ffc328"/>
    <path id="Path_68" data-name="Path 68" d="M179.356,114.752H166.634a.634.634,0,0,1-.634-.634v-2.474A2.643,2.643,0,0,1,168.643,109h8.7a2.643,2.643,0,0,1,2.643,2.643v2.474a.634.634,0,0,1-.634.634Z" transform="translate(-153.098 -62.254)" fill="#bbf7ff"/>
    <path id="Path_69" data-name="Path 69" d="M242.166,244.415A1.166,1.166,0,0,1,241,243.249v-8.083a1.166,1.166,0,1,1,2.332,0v8.083A1.166,1.166,0,0,1,242.166,244.415Z" transform="translate(-222.268 -177.538)" fill="#546e7a"/>
    <path id="Path_70" data-name="Path 70" d="M242.487,155.332H240v-1.088a1.244,1.244,0,1,1,2.487,0Z" transform="translate(-221.346 -102.834)" fill="#546e7a"/>
    <g id="Group_44" data-name="Group 44" transform="translate(0 41.5)">
      <path id="Path_71" data-name="Path 71" d="M35.138,41.5H9.949a.583.583,0,1,0,0,1.166H35.138a3.5,3.5,0,0,1,3.491,3.491V63.639A10.05,10.05,0,0,1,28.59,73.678H11.2A10.05,10.05,0,0,1,1.166,63.639V46.157a3.5,3.5,0,0,1,3.491-3.491h2.8a.583.583,0,1,0,0-1.166h-2.8A4.663,4.663,0,0,0,0,46.157V63.639a11.218,11.218,0,0,0,11.2,11.2H28.59a11.218,11.218,0,0,0,11.2-11.2V46.157A4.663,4.663,0,0,0,35.138,41.5Z" transform="translate(0 -41.5)"/>
      <path id="Path_72" data-name="Path 72" d="M65.132,73.826A2.328,2.328,0,0,0,62.806,71.5H32.326A2.328,2.328,0,0,0,30,73.826V91.307a8.808,8.808,0,0,0,1.689,5.209.583.583,0,1,0,.943-.685,7.649,7.649,0,0,1-1.467-4.524V73.826a1.161,1.161,0,0,1,1.16-1.16H62.806a1.161,1.161,0,0,1,1.16,1.16v1.328a.583.583,0,0,0,1.166,0Z" transform="translate(-27.668 -69.168)"/>
      <path id="Path_73" data-name="Path 73" d="M73.534,163.413a.583.583,0,1,0-.7.932,8.8,8.8,0,0,0,5.329,1.778H95.548a8.883,8.883,0,0,0,8.873-8.873V143.583a.583.583,0,0,0-1.166,0V157.25a7.716,7.716,0,0,1-7.707,7.707H78.162A7.641,7.641,0,0,1,73.534,163.413Z" transform="translate(-66.957 -135.111)"/>
      <path id="Path_74" data-name="Path 74" d="M173.656,107.2v-2.474a3.229,3.229,0,0,0-3.226-3.226h-8.7a3.229,3.229,0,0,0-3.226,3.226V107.2a1.219,1.219,0,0,0,1.217,1.217h12.722A1.219,1.219,0,0,0,173.656,107.2Zm-13.99,0v-2.474a2.062,2.062,0,0,1,2.06-2.06h8.7a2.062,2.062,0,0,1,2.06,2.06V107.2a.051.051,0,0,1-.051.051H167.9v-.505a1.826,1.826,0,0,0-2.623-1.643l-1.8-1.8a.583.583,0,1,0-.824.824l1.8,1.8a1.815,1.815,0,0,0-.2.826v.505h-4.534A.051.051,0,0,1,159.666,107.2Zm5.752.051v-.505a.661.661,0,0,1,1.321,0v.505Z" transform="translate(-146.181 -96.837)"/>
      <path id="Path_75" data-name="Path 75" d="M235.249,226.5a1.751,1.751,0,0,0-1.749,1.749v8.083a1.749,1.749,0,1,0,3.5,0v-8.083A1.751,1.751,0,0,0,235.249,226.5Zm.583,9.832a.583.583,0,0,1-1.166,0v-8.083a.583.583,0,0,1,1.166,0Z" transform="translate(-215.351 -212.121)"/>
    </g>
  </g>
</svg>
