<svg xmlns="http://www.w3.org/2000/svg" width="30.167" height="29.787" viewBox="0 0 30.167 29.787"><defs><style>.a{fill:none;stroke:#fff;}</style></defs><path class="a" d="M28.011,12.52l0,0L16.266.776a2.65,2.65,0,0,0-3.748,0L.781,12.512l-.012.012A2.649,2.649,0,0,0,2.533,17.04q.041,0,.082,0h.468v8.642a3.105,3.105,0,0,0,3.1,3.1h4.594a.843.843,0,0,0,.843-.843V21.168a1.417,1.417,0,0,1,1.415-1.415h2.71a1.417,1.417,0,0,1,1.415,1.415v6.775a.843.843,0,0,0,.843.843H22.6a3.105,3.105,0,0,0,3.1-3.1V17.044h.434a2.65,2.65,0,0,0,1.875-4.523Zm0,0" transform="translate(0.691 0.501)"/></svg>