<svg xmlns="http://www.w3.org/2000/svg" width="28.784" height="28.784" viewBox="0 0 28.784 28.784"><defs><style>.a{fill:#fff;}</style></defs><path class="a" d="M14.392,0A14.392,14.392,0,1,0,28.784,14.392,14.409,14.409,0,0,0,14.392,0Zm0,27.66A13.268,13.268,0,1,1,27.66,14.392,13.283,13.283,0,0,1,14.392,27.66Z"/><path class="a" d="M67.22,56a11.17,11.17,0,0,0-8.773,4.225.561.561,0,1,0,.877.7,10.1,10.1,0,1,1-2.2,6.294,10.177,10.177,0,0,1,.2-1.99.561.561,0,1,0-1.1-.22,11.221,11.221,0,1,0,11-9.01Z" transform="translate(-52.827 -52.827)"/><path class="a" d="M142.754,129.844a.567.567,0,0,0-.567.567v3.966a2.83,2.83,0,0,0,1.133,2.265v6.365a1.7,1.7,0,0,0,3.4,0v-6.365a2.83,2.83,0,0,0,1.133-2.265v-3.966a.567.567,0,1,0-1.133,0v2.833h-1.133v-2.833a.567.567,0,1,0-1.133,0v2.833H143.32v-2.833A.567.567,0,0,0,142.754,129.844Zm2.833,13.162a.567.567,0,1,1-1.133,0v-5.854a2.844,2.844,0,0,0,1.133,0Zm-.567-6.93a1.7,1.7,0,0,1-1.7-1.7h3.4A1.7,1.7,0,0,1,145.02,136.076Z" transform="translate(-134.208 -122.604)"/><path class="a" d="M267.053,135.05a1.689,1.689,0,0,0,1.7-1.675v-6.691a2.8,2.8,0,0,0,1.416-2.519,5.5,5.5,0,0,0-.829-2.749,2.45,2.45,0,0,0-4.574,0,5.5,5.5,0,0,0-.829,2.749,2.8,2.8,0,0,0,1.416,2.519v6.691A1.689,1.689,0,0,0,267.053,135.05Zm.566-1.675a.567.567,0,0,1-1.133,0v-6.312a3.916,3.916,0,0,0,1.133,0Zm-.566-12.413c.432,0,.913.377,1.319,1.034a4.412,4.412,0,0,1,.664,2.169,1.99,1.99,0,0,1-3.966,0C265.07,122.825,266.069,120.962,267.053,120.962Z" transform="translate(-249.13 -113.055)"/><path class="a" d="M74.265,166.935h0a.567.567,0,1,0-.567-.567A.566.566,0,0,0,74.265,166.935Z" transform="translate(-69.523 -156.484)"/></svg>