<svg id="_004-dinner" data-name="004-dinner" xmlns="http://www.w3.org/2000/svg" width="60" height="60" viewBox="0 0 60 60">
  <g id="Group_4" data-name="Group 4">
    <path id="Path_4" data-name="Path 4" d="M30,0A30,30,0,1,0,60,30,30.034,30.034,0,0,0,30,0Zm0,57.656A27.656,27.656,0,1,1,57.656,30,27.688,27.688,0,0,1,30,57.656Z" fill="#fff"/>
    <path id="Path_5" data-name="Path 5" d="M81.812,56a25.7,25.7,0,0,0-20.183,9.721,1.291,1.291,0,0,0,2.017,1.61,23.23,23.23,0,1,1-5.065,14.48,23.413,23.413,0,0,1,.451-4.577,1.291,1.291,0,1,0-2.531-.506A25.814,25.814,0,1,0,81.812,56Z" transform="translate(-51.812 -51.812)" fill="#fff"/>
    <path id="Path_6" data-name="Path 6" d="M142.935,129.844a.748.748,0,0,0-.748.748v5.236a3.736,3.736,0,0,0,1.5,2.99v8.4a2.244,2.244,0,1,0,4.488,0v-8.4a3.736,3.736,0,0,0,1.5-2.99v-5.236a.748.748,0,1,0-1.5,0v3.74h-1.5v-3.74a.748.748,0,1,0-1.5,0v3.74h-1.5v-3.74A.748.748,0,0,0,142.935,129.844Zm3.74,17.376a.748.748,0,0,1-1.5,0v-7.728a3.754,3.754,0,0,0,1.5,0Zm-.748-9.148a2.246,2.246,0,0,1-2.244-2.244h4.488A2.246,2.246,0,0,1,145.927,138.071Z" transform="translate(-124.061 -108.845)" fill="#fff"/>
    <path id="Path_7" data-name="Path 7" d="M268.051,161.918c1.237,0,2.244-2.079,2.244-4.635V138.768c1.159-1.373,1.87-3.868,1.87-6.971a28.511,28.511,0,0,0-1.095-7.606c-.825-2.8-1.9-4.346-3.019-4.346s-2.194,1.543-3.019,4.346a28.507,28.507,0,0,0-1.095,7.606c0,3.1.711,5.6,1.87,6.971v18.515C265.807,159.838,266.813,161.918,268.051,161.918Zm.748-4.635c0,.852-.335,1.545-.748,1.545s-.748-.693-.748-1.545V139.816a2.51,2.51,0,0,0,1.5,0Zm-.748-34.348c.571,0,1.205,1.043,1.741,2.862a22.836,22.836,0,0,1,.877,6c0,3.718-1.352,5.043-2.618,5.043s-2.618-1.325-2.618-5.043S266.752,122.935,268.051,122.935Z" transform="translate(-229.945 -110.881)" fill="#fff"/>
    <path id="Path_8" data-name="Path 8" d="M74.446,167.3h0a.748.748,0,1,0-.748-.748A.748.748,0,0,0,74.446,167.3Z" transform="translate(-68.186 -146.086)" fill="#fff"/>
  </g>
</svg>
