<svg xmlns="http://www.w3.org/2000/svg" width="28.784" height="28.784" viewBox="0 0 28.784 28.784"><defs><style>.a{fill:#fff;}</style></defs><path class="a" d="M43.705,27.034h-1.2a1.081,1.081,0,0,0-1.079,1.079v.36h-.48a.48.48,0,0,0-.48-.48H37.588a.48.48,0,0,0-.473.4l-.013.079h-.473v-.36a1.081,1.081,0,0,0-1.079-1.079h-1.2a1.079,1.079,0,0,0-.893.474l-.3-.137-.245-1.223.473-.27a1.683,1.683,0,0,0,.846-1.458V21.757h.48a.48.48,0,0,0,.48-.48v-3A2.281,2.281,0,0,0,32.911,16H27.754a1.681,1.681,0,0,0-1.679,1.679v1.559a1.081,1.081,0,0,0,1.079,1.079h2.439a2.283,2.283,0,0,0,2.119,1.439h1.559v2.662a.721.721,0,0,1-.363.625l-2.159,1.234a.723.723,0,0,1-.714,0l-2.159-1.234a.721.721,0,0,1-.363-.625V21.277h-.959v3.142a1.683,1.683,0,0,0,.846,1.458l.473.27-.235,1.173-.35.134a1.078,1.078,0,0,0-.855-.421h-1.2a1.081,1.081,0,0,0-1.079,1.079v.36h-.473l-.013-.079a.48.48,0,0,0-.473-.4H20.318a.48.48,0,0,0-.48.48h-.48v-.36a1.081,1.081,0,0,0-1.079-1.079h-1.2A1.081,1.081,0,0,0,16,28.113v3.6a1.081,1.081,0,0,0,1.079,1.079h1.2a1.081,1.081,0,0,0,1.079-1.079v-.36h.48a.48.48,0,0,0,.141.339l1.283,1.283L20.8,38.991a.48.48,0,0,0,.139.376l1.395,1.395a1.67,1.67,0,0,0,1.183.493,1.69,1.69,0,0,0,.535-.087l.853-.284L24.167,44.2a.48.48,0,0,0,.468.584h2.4v-.959h-1.8l.732-3.3.26-.087a.48.48,0,0,0,.3-.607l-1.907-5.721-.306-1.836a1.08,1.08,0,0,0,.918.513h1.2a1.081,1.081,0,0,0,1.079-1.079V28.4l.148-.057,2.391,2.391a.48.48,0,0,0,.678,0l2.344-2.344.2.089v3.235a1.081,1.081,0,0,0,1.079,1.079h1.2a1.08,1.08,0,0,0,.918-.513l-.306,1.836-1.907,5.721a.48.48,0,0,0,.3.607l.26.087.732,3.3H27.994v.959h8.156a.48.48,0,0,0,.468-.584l-.737-3.318.853.284a1.689,1.689,0,0,0,.535.087,1.67,1.67,0,0,0,1.183-.493l1.395-1.395a.48.48,0,0,0,.139-.376l-.148-1.919-.957.074.131,1.7-1.239,1.239a.716.716,0,0,1-.736.174l-1.72-.573,1.767-5.3a.48.48,0,0,0,.018-.073l.893-5.356h1.992v2.2l-1.3,1.3a.48.48,0,0,0-.139.376l.258,3.358.957-.074-.241-3.138,1.283-1.283a.48.48,0,0,0,.141-.339h.48v.36a1.081,1.081,0,0,0,1.079,1.079h1.2a1.081,1.081,0,0,0,1.079-1.079v-3.6a1.081,1.081,0,0,0-1.079-1.079Zm-16.671-7.8V17.679a.72.72,0,0,1,.72-.72h1.679v2.4H27.154A.12.12,0,0,1,27.034,19.238Zm3.358.24V16.959h2.519a1.321,1.321,0,0,1,1.319,1.319V20.8H31.712A1.321,1.321,0,0,1,30.392,19.478Zm6.55,9.955-.16.959h-.153v-.959Zm-12.786,0v.959H24l-.16-.959ZM18.4,31.712a.12.12,0,0,1-.12.12h-1.2a.12.12,0,0,1-.12-.12v-3.6a.12.12,0,0,1,.12-.12h1.2a.12.12,0,0,1,.12.12Zm.959-1.319v-.959h.48v.959Zm6.11,9.291-1.72.573a.716.716,0,0,1-.736-.174l-1.239-1.239.463-6.017a.48.48,0,0,0-.139-.376l-1.3-1.3v-2.2H22.79l.893,5.356a.48.48,0,0,0,.018.073Zm1.087-7.972a.12.12,0,0,1-.12.12h-1.2a.12.12,0,0,1-.12-.12v-3.6a.12.12,0,0,1,.12-.12h1.2a.12.12,0,0,1,.12.12Zm3.838-2-1.878-1.878.237-1.187.808.461a1.686,1.686,0,0,0,1.666,0l.808-.461.237,1.187Zm5.277,2a.12.12,0,0,1-.12.12h-1.2a.12.12,0,0,1-.12-.12v-3.6a.12.12,0,0,1,.12-.12h1.2a.12.12,0,0,1,.12.12Zm5.277-1.319v-.959h.48v.959Zm2.878,1.319a.12.12,0,0,1-.12.12h-1.2a.12.12,0,0,1-.12-.12v-3.6a.12.12,0,0,1,.12-.12h1.2a.12.12,0,0,1,.12.12Z" transform="translate(-16 -16)"/><path class="a" d="M194.177,352.189l-.907-2.719-.86.287.868,2.605-.43,2.148.889.178.453-2.266A.454.454,0,0,0,194.177,352.189Z" transform="translate(-181.79 -328.987)"/><rect class="a" width="2.266" height="0.906" transform="matrix(0.6, -0.8, 0.8, 0.6, 16.482, 20.332)"/><rect class="a" width="0.906" height="2.441" transform="matrix(0.928, -0.371, 0.371, 0.928, 15.926, 24.42)"/></svg>