<svg id="_005-exercise" data-name="005-exercise" xmlns="http://www.w3.org/2000/svg" width="60" height="60" viewBox="0 0 60 60">
  <path id="Path_9" data-name="Path 9" d="M73.75,39h-2.5A2.252,2.252,0,0,0,69,41.25V42H68a1,1,0,0,0-1-1H61a1,1,0,0,0-.986.836L59.986,42H59v-.75A2.252,2.252,0,0,0,56.75,39h-2.5a2.249,2.249,0,0,0-1.861.987L51.76,39.7l-.51-2.55.986-.564A3.508,3.508,0,0,0,54,33.549V28h1a1,1,0,0,0,1-1V20.75A4.755,4.755,0,0,0,51.25,16H40.5A3.5,3.5,0,0,0,37,19.5v3.25A2.252,2.252,0,0,0,39.25,25h5.084a4.758,4.758,0,0,0,4.416,3H52v5.549a1.5,1.5,0,0,1-.756,1.3l-4.5,2.571a1.507,1.507,0,0,1-1.488,0l-4.5-2.571a1.5,1.5,0,0,1-.756-1.3V27H38v6.549a3.508,3.508,0,0,0,1.763,3.039l.986.564L40.261,39.6l-.729.28A2.248,2.248,0,0,0,37.75,39h-2.5A2.252,2.252,0,0,0,33,41.25V42h-.986l-.027-.164A1,1,0,0,0,31,41H25a1,1,0,0,0-1,1H23v-.75A2.252,2.252,0,0,0,20.75,39h-2.5A2.252,2.252,0,0,0,16,41.25v7.5A2.252,2.252,0,0,0,18.25,51h2.5A2.252,2.252,0,0,0,23,48.75V48h1a1,1,0,0,0,.293.707l2.675,2.675L26,63.923a1,1,0,0,0,.29.784L29.2,67.615a3.48,3.48,0,0,0,2.467,1.028,3.523,3.523,0,0,0,1.115-.182l1.779-.593-1.537,6.916A1,1,0,0,0,34,76h5V74H35.247l1.527-6.87.543-.181a1,1,0,0,0,.632-1.265L33.974,53.758l-.638-3.827A2.251,2.251,0,0,0,35.25,51h2.5A2.252,2.252,0,0,0,40,48.75V41.841l.308-.118,4.985,4.985a1,1,0,0,0,1.414,0l4.885-4.885.408.185V48.75A2.252,2.252,0,0,0,54.25,51h2.5a2.251,2.251,0,0,0,1.914-1.069l-.638,3.827L54.051,65.684a1,1,0,0,0,.633,1.265l.543.181L56.753,74H41v2H58a1,1,0,0,0,.976-1.217l-1.537-6.916,1.779.593a3.52,3.52,0,0,0,1.115.182A3.481,3.481,0,0,0,62.8,67.615l2.907-2.908a1,1,0,0,0,.29-.784l-.308-4-1.994.153.272,3.541L61.385,66.2a1.492,1.492,0,0,1-1.535.362l-3.586-1.2,3.684-11.051a1,1,0,0,0,.038-.152L61.847,43H66v4.586l-2.707,2.707a1,1,0,0,0-.29.784l.538,7,1.994-.153-.5-6.541,2.675-2.675A1,1,0,0,0,68,48h1v.75A2.253,2.253,0,0,0,71.25,51h2.5A2.252,2.252,0,0,0,76,48.75v-7.5A2.252,2.252,0,0,0,73.75,39ZM39,22.75V19.5A1.5,1.5,0,0,1,40.5,18H44v5H39.25A.25.25,0,0,1,39,22.75Zm7,.5V18h5.25A2.753,2.753,0,0,1,54,20.75V26H48.75A2.753,2.753,0,0,1,46,23.25ZM59.653,44l-.333,2H59V44ZM33,44v2h-.32l-.333-2ZM21,48.75a.25.25,0,0,1-.25.25h-2.5a.25.25,0,0,1-.25-.25v-7.5a.25.25,0,0,1,.25-.25h2.5a.25.25,0,0,1,.25.25ZM23,46V44h1v2ZM35.735,65.368l-3.586,1.2a1.492,1.492,0,0,1-1.535-.362l-2.582-2.582L29,51.077a1,1,0,0,0-.29-.784L26,47.586V43h4.153l1.861,11.164a1,1,0,0,0,.038.152ZM38,48.75a.25.25,0,0,1-.25.25h-2.5a.25.25,0,0,1-.25-.25v-7.5a.25.25,0,0,1,.25-.25h2.5a.25.25,0,0,1,.25.25Zm8-4.164-3.915-3.914L42.58,38.2l1.683.962a3.515,3.515,0,0,0,3.473,0L49.42,38.2l.495,2.474ZM57,48.75a.25.25,0,0,1-.25.25h-2.5a.25.25,0,0,1-.25-.25v-7.5a.25.25,0,0,1,.25-.25h2.5a.25.25,0,0,1,.25.25ZM68,46V44h1v2Zm6,2.75a.25.25,0,0,1-.25.25h-2.5a.25.25,0,0,1-.25-.25v-7.5a.25.25,0,0,1,.25-.25h2.5a.25.25,0,0,1,.25.25Z" transform="translate(-16 -16)" fill="#fff"/>
  <path id="Path_10" data-name="Path 10" d="M194.619,352.871l-1.134-3.4-1.076.359,1.086,3.258-.537,2.687,1.112.222.567-2.834A.567.567,0,0,0,194.619,352.871Z" transform="translate(-169.686 -299.853)" fill="#fff"/>
  <rect id="Rectangle_2" data-name="Rectangle 2" width="2.834" height="1.134" transform="matrix(0.6, -0.8, 0.8, 0.6, 35.43, 42.246)" fill="#fff"/>
  <rect id="Rectangle_3" data-name="Rectangle 3" width="1.134" height="3.053" transform="matrix(0.928, -0.371, 0.371, 0.928, 34.055, 54.542)" fill="#fff"/>
</svg>
