<svg xmlns="http://www.w3.org/2000/svg" width="21.532" height="28.784" viewBox="0 0 21.532 28.784"><defs><style>.a{fill:#fff;}</style></defs><path class="a" d="M166,420.5a.425.425,0,0,0-.091.594,4.749,4.749,0,0,1,.927,2.832v.83h-1.87v-1.048a.652.652,0,0,0-.652-.651h-3.626a.652.652,0,0,0-.652.651v1.048h-6.689a.425.425,0,0,0,0,.85h13.573a.766.766,0,0,0,.765-.765v-.915a5.594,5.594,0,0,0-1.092-3.335A.425.425,0,0,0,166,420.5Zm-5.113,4.256v-.85h3.229v.85Z" transform="translate(-148.085 -396.825)"/><path class="a" d="M84.4,8.326V7.877A7.886,7.886,0,0,0,76.525,0H74.2a8.041,8.041,0,0,0-4.327,1.258.422.422,0,0,0,.453.711A7.2,7.2,0,0,1,74.2.843h2.328a7.042,7.042,0,0,1,7.034,7.034v.415H82.98a6.974,6.974,0,0,0-.122-1.208,5.669,5.669,0,0,0-1.9-3.516c-1.266-1.045-3.129-1.553-5.7-1.553s-4.43.508-5.7,1.553a5.669,5.669,0,0,0-1.9,3.516,6.971,6.971,0,0,0-.122,1.208h-.578V8.066a7.186,7.186,0,0,1,2.034-5.024.422.422,0,0,0-.606-.587A8.025,8.025,0,0,0,66.13,8.066v.26a2,2,0,0,0-1.63,1.962v3.6a2,2,0,0,0,2,2h.141v.59a.985.985,0,0,0,.984.984h2.467a6.518,6.518,0,0,0,3.071,2.228v1.028l-.975.812h-.177a5.6,5.6,0,0,0-5.594,5.594v.908a.76.76,0,0,0,.759.759h.887a.422.422,0,0,0,0-.843h-.8v-.824a4.756,4.756,0,0,1,4.751-4.751h.142l1.515,1.679a.534.534,0,0,0,.851-.077l.753-1.22.753,1.22a.534.534,0,0,0,.851.077l1.515-1.679h.142a4.727,4.727,0,0,1,2.638.8.422.422,0,0,0,.469-.7,5.568,5.568,0,0,0-3.107-.942h-.177l-.975-.812V19.684a6.521,6.521,0,0,0,4.033-4.03,1.186,1.186,0,0,0,.7.228h1.927a2,2,0,0,0,2-2v-3.6A2,2,0,0,0,84.4,8.326ZM68.5,7.244c.418-2.169,1.548-4.386,6.764-4.386s6.346,2.217,6.764,4.386a6.115,6.115,0,0,1,.107,1.048h-.028a1.194,1.194,0,0,0-1.193,1.193v2.705l-.018,0a29.465,29.465,0,0,1-.4-3.349,2.6,2.6,0,0,0-1.047-1.973,1.927,1.927,0,0,0-1.8-.081,6.955,6.955,0,0,1-4.773,0,1.927,1.927,0,0,0-1.795.082A2.6,2.6,0,0,0,70.037,8.84a29.117,29.117,0,0,1-.4,3.349l-.018,0V9.485a1.194,1.194,0,0,0-1.193-1.193H68.4A6.125,6.125,0,0,1,68.5,7.244Zm-3.159,6.642v-3.6A1.154,1.154,0,0,1,66.5,9.136h1.927a.35.35,0,0,1,.349.349v3.037c0,.006,0,.011,0,.017v2.151a.35.35,0,0,1-.349.349H66.5A1.154,1.154,0,0,1,65.343,13.886Zm2.277,2.727a.141.141,0,0,1-.141-.141v-.59h.944a1.187,1.187,0,0,0,.7-.228,6.456,6.456,0,0,0,.421.959Zm6.392,6.562-1.07-1.187.675-.562,1.069.657Zm2.508,0-.673-1.092,1.069-.657.675.562Zm.011-2.5-1.265.778L74,20.673v-.762a6.5,6.5,0,0,0,1.261.123h.008a6.5,6.5,0,0,0,1.261-.123ZM75.27,19.191h-.008a5.63,5.63,0,0,1-4.068-1.734h1.964v.028a.872.872,0,0,0,.871.871H76.5a.872.872,0,0,0,.871-.871v-.9a.872.872,0,0,0-.871-.871H74.029a.872.872,0,0,0-.871.871v.028H70.524a5.613,5.613,0,0,1-.908-3.068v-.511a.825.825,0,0,0,.731-.388,17.631,17.631,0,0,0,.531-3.736,1.789,1.789,0,0,1,.654-1.328,1.136,1.136,0,0,1,1.042-.01,7.845,7.845,0,0,0,5.383,0A1.136,1.136,0,0,1,79,7.582a1.789,1.789,0,0,1,.654,1.328,17.811,17.811,0,0,0,.531,3.736.825.825,0,0,0,.73.387v.511A5.653,5.653,0,0,1,75.27,19.191ZM74,16.585a.028.028,0,0,1,.028-.028H76.5a.028.028,0,0,1,.028.028v.9a.028.028,0,0,1-.028.028H74.029A.028.028,0,0,1,74,17.484C74.013,16.83,74,16.7,74,16.585Zm11.188-2.7a1.154,1.154,0,0,1-1.153,1.153H82.109a.35.35,0,0,1-.349-.349v-2.15c0-.006,0-.011,0-.017V9.485a.35.35,0,0,1,.349-.349h1.927a1.154,1.154,0,0,1,1.153,1.153Z" transform="translate(-64.5)"/></svg>