<svg xmlns="http://www.w3.org/2000/svg" width="24.394" height="28.784" viewBox="0 0 24.394 28.784"><defs><style>.a{fill:#fff;}</style></defs><g transform="translate(9.602)"><path class="a" d="M82.509,2.787a3.25,3.25,0,0,0-5.843-1.453.382.382,0,1,0,.617.451A2.486,2.486,0,0,1,81.752,2.9a.383.383,0,0,0,.378.328.409.409,0,0,0,.054,0A.382.382,0,0,0,82.509,2.787Z" transform="translate(-76.593)"/></g><g transform="translate(0.765 6.527)"><path class="a" d="M44.979,46.469l-1.491-1.912a.541.541,0,0,0-.426-.186H41.632a.4.4,0,1,0,0,.765H42.78l.895,1.147H23.56l.895-1.147h.526a.4.4,0,1,0,0-.765h-.808a.541.541,0,0,0-.426.186l-1.491,1.912a.308.308,0,0,0-.006.385.537.537,0,0,0,.432.194h21.87a.537.537,0,0,0,.432-.194A.308.308,0,0,0,44.979,46.469Z" transform="translate(-22.185 -44.372)"/></g><g transform="translate(15.357 2.142)"><path class="a" d="M111.655,20.526a.382.382,0,0,0-.238-.171l-5.212-1.219a.382.382,0,0,0-.459.285l-.393,1.68a.382.382,0,0,0,.745.174l.306-1.308,4.467,1.045-.7,3a.382.382,0,0,0,.285.459.386.386,0,0,0,.088.01.382.382,0,0,0,.372-.3l.789-3.373A.381.381,0,0,0,111.655,20.526Z" transform="translate(-105.343 -19.126)"/></g><g transform="translate(2.255 1.162)"><path class="a" d="M43,13.657l-.348-2.946a.383.383,0,0,0-.425-.335l-6.395.756a.382.382,0,0,0-.335.425l.581,4.914a.382.382,0,0,0,.379.338l.045,0a.383.383,0,0,0,.335-.425L36.3,11.846l5.635-.666.3,2.567A.382.382,0,0,0,43,13.657Z" transform="translate(-35.494 -10.374)"/></g><g transform="translate(7.471 4.897)"><path class="a" d="M68.669,36.218l-.759-3.156a.382.382,0,0,0-.461-.282L61.29,34.261a.382.382,0,0,0-.282.461l.379,1.577a.382.382,0,1,0,.743-.179l-.29-1.206,5.416-1.3.669,2.784a.382.382,0,0,0,.744-.179Z" transform="translate(-60.997 -32.769)"/></g><g transform="translate(0 6.882)"><path class="a" d="M38.776,61.948a.51.51,0,0,0-.487-.507H16.822a.51.51,0,0,0-.487.507l-.976,20.834a.565.565,0,0,0,.133.4.47.47,0,0,0,.354.166H39.264a.471.471,0,0,0,.354-.166.566.566,0,0,0,.133-.4ZM16.36,82.275l.926-19.766H37.825l.926,19.766Z" transform="translate(-15.359 -61.441)"/></g><g transform="translate(14.817 10.996)"><path class="a" d="M117.2,75.093a1.147,1.147,0,1,0,1.147,1.147A1.148,1.148,0,0,0,117.2,75.093Zm0,1.529a.382.382,0,1,1,.382-.382A.383.383,0,0,1,117.2,76.622Z" transform="translate(-116.052 -75.093)"/></g><g transform="translate(7.283 10.996)"><path class="a" d="M66,75.093a1.147,1.147,0,1,0,1.147,1.147A1.148,1.148,0,0,0,66,75.093Zm0,1.529a.382.382,0,1,1,.382-.382A.383.383,0,0,1,66,76.622Z" transform="translate(-64.852 -75.093)"/></g><g transform="translate(8.947 13.096)"><path class="a" d="M77.8,85.333h-.029a.382.382,0,0,0-.382.382.378.378,0,0,0,.029.147v1.955a2.485,2.485,0,0,1-4.97,0v-2.1a.382.382,0,0,0-.765,0v2.1a3.25,3.25,0,0,0,6.5,0v-2.1A.383.383,0,0,0,77.8,85.333Z" transform="translate(-71.679 -85.333)"/></g></svg>