<svg xmlns="http://www.w3.org/2000/svg" width="29.546" height="29.546" viewBox="0 0 29.546 29.546"><defs><style>.a{fill:#fff;}</style></defs><path class="a" d="M140.672,133.609a7.063,7.063,0,1,0,7.063,7.063A7.071,7.071,0,0,0,140.672,133.609Zm0,12.36a5.3,5.3,0,1,1,5.3-5.3A5.3,5.3,0,0,1,140.672,145.969Zm0,0" transform="translate(-125.899 -125.899)"/><path class="a" d="M28.85,11.409l-2.271-.494a12.358,12.358,0,0,0-.731-1.762L27.106,7.2a.883.883,0,0,0-.118-1.1L23.45,2.558a.883.883,0,0,0-1.1-.118L20.393,3.7a12.359,12.359,0,0,0-1.762-.731L18.137.7a.883.883,0,0,0-.863-.7h-5a.883.883,0,0,0-.863.7l-.494,2.271A12.358,12.358,0,0,0,9.153,3.7L7.2,2.44a.883.883,0,0,0-1.1.118L2.558,6.1A.883.883,0,0,0,2.44,7.2L3.7,9.153a12.359,12.359,0,0,0-.731,1.762L.7,11.409a.883.883,0,0,0-.7.863v5a.883.883,0,0,0,.7.863l2.271.494A12.358,12.358,0,0,0,3.7,20.393L2.44,22.348a.883.883,0,0,0,.118,1.1L6.1,26.987a.883.883,0,0,0,1.1.118l1.955-1.257a12.359,12.359,0,0,0,1.762.731l.494,2.271a.883.883,0,0,0,.863.7h5a.883.883,0,0,0,.863-.7l.494-2.271a12.359,12.359,0,0,0,1.762-.731l1.955,1.257a.883.883,0,0,0,1.1-.118l3.538-3.538a.883.883,0,0,0,.118-1.1l-1.257-1.955a12.358,12.358,0,0,0,.731-1.762l2.271-.494a.883.883,0,0,0,.7-.863v-5A.883.883,0,0,0,28.85,11.409Zm-1.07,5.154-2.082.453a.883.883,0,0,0-.663.626A10.593,10.593,0,0,1,24.057,20a.883.883,0,0,0,.026.911L25.236,22.7,22.7,25.236l-1.794-1.153A.882.882,0,0,0,20,24.057a10.6,10.6,0,0,1-2.359.978.883.883,0,0,0-.626.663l-.453,2.082h-3.58L12.53,25.7a.883.883,0,0,0-.626-.663,10.593,10.593,0,0,1-2.359-.978.883.883,0,0,0-.911.026L6.841,25.236,4.31,22.7l1.153-1.793A.883.883,0,0,0,5.489,20a10.6,10.6,0,0,1-.978-2.359.883.883,0,0,0-.663-.626l-2.082-.453v-3.58l2.082-.453a.883.883,0,0,0,.663-.626,10.593,10.593,0,0,1,.978-2.359.883.883,0,0,0-.026-.911L4.31,6.841,6.841,4.31,8.634,5.463a.882.882,0,0,0,.911.026A10.6,10.6,0,0,1,11.9,4.511a.883.883,0,0,0,.626-.663l.453-2.082h3.58l.453,2.082a.883.883,0,0,0,.626.663A10.593,10.593,0,0,1,20,5.489a.883.883,0,0,0,.911-.026L22.7,4.31l2.531,2.531L24.083,8.634a.883.883,0,0,0-.026.911,10.594,10.594,0,0,1,.978,2.359.883.883,0,0,0,.663.626l2.082.453Zm0,0" transform="translate(0 0)"/></svg>