<svg xmlns="http://www.w3.org/2000/svg" width="150" height="150" viewBox="0 0 150 150">
  <g id="Group_182" data-name="Group 182" transform="translate(-1609 -80)">
    <rect id="IMAGE_HERE" data-name="IMAGE HERE" width="150" height="150" rx="75" transform="translate(1609 80)" fill="#cacaca"/>
    <g id="user" transform="translate(1649.522 121.522)">
      <g id="Group_1" data-name="Group 1" transform="translate(0)">
        <path id="Path_1" data-name="Path 1" d="M57.15,43.283A33.349,33.349,0,0,0,44.429,35.3a19.354,19.354,0,1,0-21.9,0A33.531,33.531,0,0,0,0,66.956H5.231a28.247,28.247,0,1,1,56.494,0h5.231A33.259,33.259,0,0,0,57.15,43.283ZM33.478,33.478A14.123,14.123,0,1,1,47.6,19.354,14.139,14.139,0,0,1,33.478,33.478Z" transform="translate(0)" fill="#5a15f2"/>
      </g>
    </g>
  </g>
</svg>
