<svg xmlns="http://www.w3.org/2000/svg" width="29.784" height="29.784" viewBox="0 0 29.784 29.784"><defs><style>.a{fill:none;stroke:#fff;}</style></defs><path class="a" d="M9.635,25.028a2.878,2.878,0,1,0,2.878,2.878A2.875,2.875,0,0,0,9.635,25.028ZM1,2V4.878H3.878L9.06,15.8,7.117,19.328a2.783,2.783,0,0,0-.36,1.382,2.887,2.887,0,0,0,2.878,2.878H26.906V20.71H10.24a.356.356,0,0,1-.36-.36l.043-.173,1.3-2.346H21.941a2.865,2.865,0,0,0,2.519-1.482l5.152-9.341a1.406,1.406,0,0,0,.173-.691,1.443,1.443,0,0,0-1.439-1.439H7.059L5.706,2H1ZM24.028,25.028a2.878,2.878,0,1,0,2.878,2.878A2.875,2.875,0,0,0,24.028,25.028Z" transform="translate(-0.5 -1.5)"/></svg>