<svg xmlns="http://www.w3.org/2000/svg" width="52.536" height="52.536" viewBox="0 0 52.536 52.536">
  <g id="instructor" transform="translate(-1 -1)">
    <path id="Path_30" data-name="Path 30" d="M5,29H6.751v1.751H5Z" transform="translate(-0.498 -4.3)" fill="#fff"/>
    <path id="Path_31" data-name="Path 31" d="M9,29h7.88v1.751H9Z" transform="translate(-0.995 -4.3)" fill="#fff"/>
    <path id="Path_32" data-name="Path 32" d="M51.3,19.394a4.98,4.98,0,0,0-1.8-.745l-2.747-.55V16.635a5.074,5.074,0,0,0,1.618-2.925H49.3a2.545,2.545,0,0,0,2.542-2.542,2.517,2.517,0,0,0-.575-1.59,5.537,5.537,0,0,0,.575-2.451v-.2a3.394,3.394,0,0,0-3.025-3.37,9.357,9.357,0,0,0-6.3-2.554V1H1V29.81H37.436v5.772a5.083,5.083,0,0,0-2.542,4.4,11.675,11.675,0,0,0,1.226,5.194l.121.242-1.84.613a4.224,4.224,0,0,0-2.05,1.484,4.224,4.224,0,0,0-2.05-1.484l-1.84-.613.121-.242a11.675,11.675,0,0,0,1.226-5.194,5.084,5.084,0,1,0-10.168,0,11.675,11.675,0,0,0,1.226,5.194l.121.242-1.84.613a4.22,4.22,0,0,0-1.915,1.324A4.229,4.229,0,0,0,15.6,45.91l-1.047-.524V39.978a5.084,5.084,0,1,0-10.168,0v5.408l-1.047.524A4.214,4.214,0,0,0,1,49.7v3.837H48.452V50.047a4.223,4.223,0,0,0-1.582-3.29H49.3V36.291a2.936,2.936,0,0,0,1.271.3,2.969,2.969,0,0,0,2.966-2.966V23.567A5,5,0,0,0,51.3,19.394Zm-2.13.917a3.32,3.32,0,0,1,2.669,3.256V29.81H49.3V24.229a2.032,2.032,0,0,1,.6-1.446l-1.2-1.2a3.715,3.715,0,0,0-1.1,2.645V31.5H39.131V24.229a3.715,3.715,0,0,0-1.1-2.645l-1.2,1.2a2.02,2.02,0,0,1,.354.495l-1.7.426a5.9,5.9,0,0,1-5.322-1.324l-2.78-2.5,2.211-2.212,4.255,3.782,2.762-.92a3.374,3.374,0,0,1,.4-.106l3.248-.65.075.225a3.2,3.2,0,0,0,6.07,0l.075-.225Zm-24.8-3.142a1.5,1.5,0,0,1,1-2.612h.153a1.491,1.491,0,0,1,.995.379l1.8,1.6-2.2,2.2Zm20.688,1.487-.267.8a1.5,1.5,0,0,1-2.855,0l-.268-.8V17.645a4.99,4.99,0,0,0,3.389,0Zm1.695-5.8a3.389,3.389,0,1,1-6.779,0V10.279A6.563,6.563,0,0,0,43.368,8.9a6.57,6.57,0,0,0,3.389,1.374Zm2.542-.841h-.847V10.321H49.3a.847.847,0,0,1,0,1.695ZM48.1,5.237h.347a1.7,1.7,0,0,1,1.695,1.695v.2a3.854,3.854,0,0,1-.331,1.552,2.526,2.526,0,0,0-.516-.053h-.847V8.62h-.993a4.9,4.9,0,0,1-3.492-1.446l-.6-.6-.6.6A4.905,4.905,0,0,1,39.277,8.62h-.993v.006h-.847a2.526,2.526,0,0,0-.516.053,3.854,3.854,0,0,1-.331-1.552V6.954A3.7,3.7,0,0,1,38.376,3.8a7.734,7.734,0,0,1,9.481,1.2ZM37.436,12.016a.847.847,0,0,1,0-1.695h.847v1.695ZM2.695,28.115V2.695H37a5.405,5.405,0,0,0-2.1,4.259v.174a5.537,5.537,0,0,0,.575,2.451,2.515,2.515,0,0,0-.575,1.59,2.545,2.545,0,0,0,2.542,2.542h.924a5.074,5.074,0,0,0,1.618,2.925V18.1l-3.3.66a5.083,5.083,0,0,0-.6.159l-1.831.611L27.65,13.67a3.184,3.184,0,0,0-2.121-.807h-.153a3.193,3.193,0,0,0-2.135,5.565l5.79,5.21A7.529,7.529,0,0,0,35.9,25.348l1.539-.384v3.151Zm37.284,8.474a3.393,3.393,0,0,1,3.389,3.389,9.976,9.976,0,0,1-1.047,4.437L42,45.062H37.96l-.324-.647a9.976,9.976,0,0,1-1.047-4.437A3.393,3.393,0,0,1,39.978,36.589Zm-15.252,0a3.393,3.393,0,0,1,3.389,3.389,9.976,9.976,0,0,1-1.047,4.437l-.324.647H22.707l-.324-.647a9.976,9.976,0,0,1-1.047-4.437A3.393,3.393,0,0,1,24.726,36.589ZM6.084,39.978a3.389,3.389,0,1,1,6.779,0v8.474H6.084ZM16.252,51.841H2.695V49.7a2.528,2.528,0,0,1,1.4-2.273l.29-.145v2.866H14.558V47.281l.29.145a2.529,2.529,0,0,1,1.4,2.273v2.142Zm15.252,0H17.947V50.047a2.538,2.538,0,0,1,1.739-2.412l2.636-.879h4.809l2.636.879A2.539,2.539,0,0,1,31.5,50.047Zm15.252,0H33.2V50.047a2.538,2.538,0,0,1,1.739-2.412l2.636-.879h4.809l2.636.879a2.539,2.539,0,0,1,1.738,2.412Zm.847-6.779H43.884a11.681,11.681,0,0,0,1.179-5.084,5.056,5.056,0,0,0-5.931-5.008V33.2H47.6V45.062ZM50.57,34.894A1.273,1.273,0,0,1,49.3,33.623V31.5h2.542v2.118A1.273,1.273,0,0,1,50.57,34.894Z" transform="translate(0 0)" fill="#fff"/>
    <path id="Path_33" data-name="Path 33" d="M19.01,10.5H17.258V14H15.507V7H13.756v7H12V8.751H10.254V14H8.5V10.5H6.751V14H5v1.751H20.761V14H19.01Z" transform="translate(-0.498 -0.746)" fill="#fff"/>
    <path id="Path_34" data-name="Path 34" d="M5,19H6.751v1.751H5Z" transform="translate(-0.498 -2.765)" fill="#fff"/>
    <path id="Path_35" data-name="Path 35" d="M9,19h8.756v1.751H9Z" transform="translate(-0.995 -2.765)" fill="#fff"/>
    <path id="Path_36" data-name="Path 36" d="M21,19h1.751v1.751H21Z" transform="translate(-3.072 -2.765)" fill="#fff"/>
  </g>
</svg>
