<svg xmlns="http://www.w3.org/2000/svg" width="27.591" height="27.589" viewBox="0 0 27.591 27.589"><defs><style>.a{fill:#fff;}</style></defs><path class="a" d="M21.082.959a3.28,3.28,0,0,0-4.634,0l-1.16,1.166L2.939,14.468l-.026.026c-.006.006-.006.013-.013.013-.013.02-.033.039-.046.059s-.007.007-.007.013-.019.033-.033.052-.006.013-.013.02-.013.033-.02.052-.006.006-.006.013L.035,22.956a.645.645,0,0,0,.157.668.66.66,0,0,0,.465.19.773.773,0,0,0,.21-.033L9.1,21.035c.006,0,.006,0,.013-.006A.237.237,0,0,0,9.172,21,.023.023,0,0,0,9.185,21c.019-.013.046-.026.065-.04s.039-.033.059-.046.013-.007.013-.013.02-.013.026-.026L22.858,7.363a3.28,3.28,0,0,0,0-4.634ZM8.89,19.495,4.328,14.933,15.747,3.515l4.562,4.562Zm-5.2-3.349,3.985,3.985L1.687,22.124Zm18.249-9.7-.695.7L16.677,2.584l.7-.7a1.966,1.966,0,0,1,2.779,0l1.783,1.783a1.973,1.973,0,0,1-.006,2.779Zm0,0" transform="matrix(0.985, 0.174, -0.174, 0.985, 4.135, 0)"/></svg>