<svg xmlns="http://www.w3.org/2000/svg" width="29.534" height="29.534" viewBox="0 0 29.534 29.534"><defs><style>.a{fill:none;stroke:#fff;stroke-width:0.75px;}</style></defs><g transform="translate(0.375 0.375)"><path class="a" d="M5.055,8.767H1.145A1.159,1.159,0,0,1,0,7.6V1.169A1.158,1.158,0,0,1,1.145,0h3.91A1.158,1.158,0,0,1,6.2,1.169V7.6A1.159,1.159,0,0,1,5.055,8.767ZM2.284,2.338h0v4.09H3.909V2.338Z" transform="translate(2.29 15.927)"/><path class="a" d="M5.055,16.364H1.146A1.159,1.159,0,0,1,0,15.195V1.169A1.159,1.159,0,0,1,1.146,0H5.055A1.159,1.159,0,0,1,6.2,1.169V15.195A1.159,1.159,0,0,1,5.055,16.364ZM2.292,2.337V14.026H3.916V2.337Z" transform="translate(11.292 8.33)"/><path class="a" d="M5.055,24.694H1.146A1.178,1.178,0,0,1,0,23.488V1.2A1.177,1.177,0,0,1,1.146,0H5.055A1.177,1.177,0,0,1,6.2,1.2V23.488A1.178,1.178,0,0,1,5.055,24.694ZM2.287,2.409h0V22.284H3.912V2.409Z" transform="translate(20.295 0)"/><path class="a" d="M56.912,347.338a1.169,1.169,0,1,0,0-2.338H30.526a1.169,1.169,0,1,0,0,2.338H56.912" transform="translate(-29.327 -318.553)"/></g></svg>